<svg width="40" height="40" viewBox="0 0 77 77" fill="none" xmlns="http://www.w3.org/2000/svg">
<path d="M16.7448 4H59.7938C66.8038 4 72.5389 9.7351 72.5389 16.7449V59.7938C72.5389 66.8039 66.8038 72.5387 59.7938 72.5387H16.7448C9.73525 72.5387 4 66.8039 4 59.7938V16.7449C4 9.7351 9.73525 4 16.7448 4Z" stroke="#898989" stroke-width="7.0866"/>
<path fill-rule="evenodd" clip-rule="evenodd" d="M54.5148 14C58.1126 14 61.0294 16.9169 61.0294 20.5149C61.0294 24.1126 58.1126 27.0295 54.5148 27.0295C50.9168 27.0295 48 24.1126 48 20.5149C48 16.9169 50.9168 14 54.5148 14Z" fill="#898989"/>
<path fill-rule="evenodd" clip-rule="evenodd" d="M22.5148 49C26.1126 49 29.0294 51.9169 29.0294 55.5149C29.0294 59.1126 26.1126 62.0295 22.5148 62.0295C18.9168 62.0295 16 59.1126 16 55.5149C16 51.9169 18.9168 49 22.5148 49Z" fill="#898989"/>
<path fill-rule="evenodd" clip-rule="evenodd" d="M54.5148 49C58.1126 49 61.0294 51.9169 61.0294 55.5149C61.0294 59.1126 58.1126 62.0295 54.5148 62.0295C50.9168 62.0295 48 59.1126 48 55.5149C48 51.9169 50.9168 49 54.5148 49Z" fill="#898989"/>
<path fill-rule="evenodd" clip-rule="evenodd" d="M22.5148 14C26.1126 14 29.0294 16.9169 29.0294 20.5149C29.0294 24.1126 26.1126 27.0295 22.5148 27.0295C18.9168 27.0295 16 24.1126 16 20.5149C16 16.9169 18.9168 14 22.5148 14Z" fill="#898989"/>
<path fill-rule="evenodd" clip-rule="evenodd" d="M22.5148 31C26.1126 31 29.0294 33.9169 29.0294 37.5149C29.0294 41.1126 26.1126 44.0295 22.5148 44.0295C18.9168 44.0295 16 41.1126 16 37.5149C16 33.9169 18.9168 31 22.5148 31Z" fill="#898989"/>
<path fill-rule="evenodd" clip-rule="evenodd" d="M54.5148 31C58.1126 31 61.0294 33.9169 61.0294 37.5149C61.0294 41.1126 58.1126 44.0295 54.5148 44.0295C50.9168 44.0295 48 41.1126 48 37.5149C48 33.9169 50.9168 31 54.5148 31Z" fill="#898989"/>
</svg>
