<svg xmlns="http://www.w3.org/2000/svg" fill="none" viewBox="0 0 73 73">
  <defs/>
  <path fill="#fff" stroke="#898989" stroke-width="3" d="M14.7448 2h43.049c7.01 0 12.7451 5.7351 12.7451 12.7449v43.0489c0 7.0101-5.7351 12.7449-12.7451 12.7449h-43.049C7.73525 70.5387 2 64.8039 2 57.7938V14.7449C2 7.7351 7.73525 2 14.7448 2z"/>
  <path fill="#898989" fill-rule="evenodd" d="M20.5148 29c3.5978 0 6.5146 2.9169 6.5146 6.5149 0 3.5977-2.9168 6.5146-6.5146 6.5146-3.598 0-6.5148-2.9169-6.5148-6.5146C14 31.9169 16.9168 29 20.5148 29zM52.5148 29c3.5978 0 6.5146 2.9169 6.5146 6.5149 0 3.5977-2.9168 6.5146-6.5146 6.5146-3.598 0-6.5148-2.9169-6.5148-6.5146C46 31.9169 48.9168 29 52.5148 29z" clip-rule="evenodd"/>
</svg>
