<svg width="40" height="40" viewBox="0 0 77 77" fill="none" xmlns="http://www.w3.org/2000/svg">
<path d="M16.7448 4H59.7938C66.8038 4 72.5389 9.7351 72.5389 16.7449V59.7938C72.5389 66.8039 66.8038 72.5387 59.7938 72.5387H16.7448C9.73525 72.5387 4 66.8039 4 59.7938V16.7449C4 9.7351 9.73525 4 16.7448 4Z" stroke="#898989" stroke-width="7.0866"/>
<path fill-rule="evenodd" clip-rule="evenodd" d="M54.4901 14.4707C58.0882 14.4707 61.0052 17.3875 61.0052 20.9855C61.0052 24.5838 58.0882 27.5007 54.4901 27.5007C50.8921 27.5007 47.9753 24.5838 47.9753 20.9855C47.9753 17.3875 50.8921 14.4707 54.4901 14.4707V14.4707Z" fill="#898989"/>
<path fill-rule="evenodd" clip-rule="evenodd" d="M38.2693 31.7546C41.8671 31.7546 44.784 34.6715 44.784 38.2695C44.784 41.8672 41.8671 44.7841 38.2693 44.7841C34.6713 44.7841 31.7546 41.8672 31.7546 38.2695C31.7546 34.6715 34.6713 31.7546 38.2693 31.7546Z" fill="#898989"/>
<path fill-rule="evenodd" clip-rule="evenodd" d="M54.5148 49C58.1126 49 61.0294 51.9169 61.0294 55.5149C61.0294 59.1126 58.1126 62.0295 54.5148 62.0295C50.9168 62.0295 48 59.1126 48 55.5149C48 51.9169 50.9168 49 54.5148 49Z" fill="#898989"/>
<path fill-rule="evenodd" clip-rule="evenodd" d="M22.5148 14C26.1126 14 29.0294 16.9169 29.0294 20.5149C29.0294 24.1126 26.1126 27.0295 22.5148 27.0295C18.9168 27.0295 16 24.1126 16 20.5149C16 16.9169 18.9168 14 22.5148 14Z" fill="#898989"/>
<path fill-rule="evenodd" clip-rule="evenodd" d="M22.3307 49.4766C25.9287 49.4766 28.8457 52.3935 28.8457 55.9915C28.8457 59.5892 25.9287 62.5061 22.3307 62.5061C18.733 62.5061 15.8162 59.5892 15.8162 55.9915C15.8162 52.3935 18.733 49.4766 22.3307 49.4766Z" fill="#898989"/>
</svg>
