<svg width="87" height="80" viewBox="0 0 87 80" fill="none" xmlns="http://www.w3.org/2000/svg">
    <path fill-rule="evenodd" clip-rule="evenodd" d="M42.3806 24.5481C39.7222 25.4328 41.1531 29.1111 43.6134 28.2622C45.8304 27.4972 44.893 23.712 42.3806 24.5481Z" fill="white"/>
    <path fill-rule="evenodd" clip-rule="evenodd" d="M30.0378 24.484C27.5575 25.0475 28.2572 28.9358 30.9645 28.3153C33.3081 27.7781 32.5709 23.9086 30.0378 24.484Z" fill="white"/>
    <path fill-rule="evenodd" clip-rule="evenodd" d="M16.1379 25.6619L16.114 26.8599C16.162 27.4963 16.6719 27.9829 17.1581 28.1788C17.7668 28.3291 17.8319 28.3781 18.4889 28.2689C19.8176 28.0769 20.4323 26.1196 19.433 25.0585C18.3428 23.9009 16.8149 24.4351 16.1385 25.6619H16.1379Z" fill="white"/>
    <path fill-rule="evenodd" clip-rule="evenodd" d="M54.6328 55.0012C51.776 55.1518 37.9953 54.8761 36.6487 55.3438C35.9684 55.5802 27.0034 62.4122 26.2233 63.1647C27.1825 65.2611 29.013 66.3355 31.7495 67.3942C35.3001 67.9387 40.6841 67.3892 44.4424 67.3942H50.74C52.8837 68.7413 59.0294 73.38 61.0582 74.8638C62.7935 76.1328 65.6741 78.5932 67.5031 79.4686C67.5191 75.6692 67.534 71.8697 67.55 67.3942H72.377C82.9744 67.4333 85.8718 65.0757 85.8644 55.427L85.8744 48.4406C86.0382 21.8786 88.837 17.6757 67.5525 18.3576C66.0634 32.9957 73.2404 50.0468 54.6329 55.0012H54.6328Z" fill="#898989"/>
    <path fill-rule="evenodd" clip-rule="evenodd" d="M9.33337 6.08081L16.1321 6.06854H24.4331L31.4197 6.06152H39.3452H46.5195C57.6687 6.05752 55.1902 4.60675 55.199 30.3224C55.199 40.8614 57.9178 42.9214 46.9186 42.8802L38.9226 42.8801C36.6955 42.8861 33.7309 42.9418 32.0652 43.0208L24.4966 48.7966L24.4596 42.89C19.6777 42.9417 14.7528 42.98 10.0671 42.8819C7.58864 42.83 6.31851 42.3175 6.13281 39.701L6.11084 10.6724C6.12184 7.36292 6.31904 6.61283 9.33264 6.08063L9.33337 6.08081ZM0 10.1385L0.000732422 18.0199L0 25.2384L0.000732422 33.1198L0.0297852 40.421C0.567485 45.3442 3.52074 48.137 8.20044 48.9155L18.1731 49.0219L18.3745 61.0413L25.2815 56.0887C35.5664 48.273 32.8136 48.9851 42.5544 48.9857C46.568 48.9859 50.7675 49.2599 54.6324 48.7463C56.616 48.1786 58.4603 46.8952 59.632 45.1357C60.6472 43.6108 60.913 42.7874 61.2656 40.8925C61.5989 32.8774 61.3006 24.4273 61.3446 16.3552C61.3946 7.12402 61.7766 2.2623 53.5004 0L7.07214 0.118652C2.62424 0.763752 0.0172 3.63865 0 10.1385Z" fill="#338FFD"/>
</svg>
