<svg viewBox="0 0 87 80" fill="none" xmlns="http://www.w3.org/2000/svg">
<rect x="5.91309" y="5.10107" width="49.9127" height="44.0969" rx="4" transform="rotate(-0.226812 5.91309 5.10107)" fill="white"/>
<path fill-rule="evenodd" clip-rule="evenodd" d="M40.2202 70.8669L40.432 71.1046C40.6772 70.5583 40.4329 70.7489 40.371 70.3093C40.361 70.2565 40.336 70.2486 40.318 70.2188L40.4089 70.8295C40.3239 70.9438 40.6042 71.0429 40.2205 70.8669H40.2202Z" fill="#6B6B6B"/>
<path fill-rule="evenodd" clip-rule="evenodd" d="M7.64905 31.7935C7.70305 31.7128 7.71012 31.8463 7.81152 31.4672C7.84852 31.328 7.85354 31.1777 7.87354 31.0361C7.78054 31.1861 7.85044 30.8493 7.70984 31.3727C7.66884 31.5248 7.66893 31.6531 7.64893 31.7935H7.64905Z" fill="#7F7F7F"/>
<path fill-rule="evenodd" clip-rule="evenodd" d="M52.689 62.2609C52.7933 62.2344 52.9545 62.2073 53.0664 62.1649C53.4828 62.0067 53.2476 62.0826 53.3741 61.9932C53.2451 62.0163 53.1064 62.0236 52.9801 62.0684C52.4802 62.2458 52.8615 62.1045 52.689 62.2609Z" fill="#737373"/>
<path fill-rule="evenodd" clip-rule="evenodd" d="M10.8801 57.3757L10.6602 57.0352C10.7633 57.369 10.7151 57.2453 10.8801 57.3757Z" fill="#7B7B7B"/>
<path fill-rule="evenodd" clip-rule="evenodd" d="M10.9846 28.5362L11.2156 28.2051L10.9846 28.5362Z" fill="#7E7E7E"/>
<path fill-rule="evenodd" clip-rule="evenodd" d="M52.4248 60.5744L53.3654 60.2119L52.4248 60.5744Z" fill="#797979"/>
<path fill-rule="evenodd" clip-rule="evenodd" d="M54.6329 55.001C51.7761 55.1516 37.9954 54.8758 36.6488 55.3435C35.9685 55.5799 27.0035 62.412 26.2234 63.1645C27.1826 65.2609 29.0131 66.3353 31.7496 67.394C35.3002 67.9385 40.6842 67.389 44.4425 67.394H50.7401C52.8838 68.7411 59.0295 73.3798 61.0583 74.8636C62.7936 76.1326 65.6742 78.593 67.5032 79.4684C67.5192 75.669 67.5342 71.8695 67.5502 67.394H72.3771C82.9745 67.4331 85.8719 65.0755 85.8645 55.4268L85.8745 48.4403C86.0383 21.8783 88.8371 17.6755 67.5526 18.3574C66.0635 32.9955 73.2406 50.0466 54.6331 55.001H54.6329Z" fill="#898989"/>
<path fill-rule="evenodd" clip-rule="evenodd" d="M9.33337 6.08081L16.1321 6.06854H24.4331L31.4197 6.06152H39.3452H46.5195C57.6687 6.05752 55.1902 4.60675 55.199 30.3224C55.199 40.8613 57.9178 42.9214 46.9186 42.8802L38.9226 42.8801C36.6955 42.8861 33.7309 42.9418 32.0652 43.0208L24.4966 48.7966L24.4596 42.89C19.6777 42.9417 14.7528 42.98 10.0671 42.8819C7.58864 42.83 6.31851 42.3174 6.13281 39.701L6.11084 10.6724C6.12184 7.36292 6.31977 6.61301 9.33337 6.08081ZM0 10.1385L0.000732422 18.0199L0 25.2384L0.000732422 33.1198L0.0297852 40.421C0.567485 45.3442 3.52074 48.137 8.20044 48.9155L18.1731 49.0219L18.3745 61.0413L25.2815 56.0887C35.5664 48.273 32.8136 48.9851 42.5544 48.9857C46.568 48.9859 50.7675 49.2599 54.6324 48.7463C56.616 48.1786 58.4603 46.8952 59.632 45.1357C60.6472 43.6108 60.913 42.7874 61.2656 40.8925C61.5989 32.8774 61.3006 24.4273 61.3446 16.3552C61.3946 7.12402 61.7766 2.2623 53.5004 0L7.07214 0.118652C2.62424 0.763752 0.0172 3.63865 0 10.1385Z" fill="#338FFD"/>
</svg>
