<svg width="26" height="29" viewBox="0 0 26 29" fill="none" xmlns="http://www.w3.org/2000/svg">
<path fill-rule="evenodd" clip-rule="evenodd" d="M19.1375 15.2249C18.9888 15.5168 16.9151 16.8625 16.4569 17.1355C14.6681 18.2012 12.8966 19.292 11.4106 20.7462L10.0691 22.2737C8.83178 24.0203 9.24619 24.1845 8.68839 25.4929C8.25609 26.5071 7.78938 26.277 7.59008 25.645C7.23478 24.5183 7.75038 22.8357 8.17498 21.8921C8.48598 21.201 9.01248 20.2988 9.46358 19.7179C10.08 18.9241 10.8409 18.392 10.5491 17.4969C10.3489 16.8828 9.87308 16.7346 9.18178 16.5782C7.95038 16.2996 6.68588 16.0047 5.48198 15.6839C4.88558 15.525 4.17609 15.3932 3.78089 15.0593C3.37929 14.72 3.00109 14.2069 3.35859 13.4499C3.79719 12.5209 4.67379 12.2791 5.00359 11.6328C5.11919 11.4064 5.23478 11.0914 5.33568 10.826C5.90028 9.3419 7.35309 5.67841 8.09809 4.44681C8.66739 3.50581 8.57928 3.417 9.30588 3.3434C9.98658 3.2744 10.8347 3.31001 11.519 3.37151C12.9981 3.50461 18.0189 4.2079 19.1372 4.8909L19.1375 15.2249ZM10.7662 0.887207H9.29038C8.14498 1.21631 7.54118 0.865901 6.57328 2.2209C5.58558 3.6036 4.48559 6.04951 3.86529 7.68471L3.01569 9.91991C2.88369 10.2706 2.85859 10.3296 2.60509 10.5322L2.09429 10.9984C1.66349 11.3266 1.10459 12.2951 0.926488 12.9152C0.270488 15.1982 1.65878 17.1023 3.97638 17.7914C4.48128 17.9415 7.01638 18.512 7.21648 18.6335C6.75698 19.503 6.49168 19.6466 5.93488 20.9538C5.56658 21.8182 5.24509 22.7984 5.13979 23.8362C4.96799 25.5295 5.27109 27.6314 6.89329 28.3449C7.10699 28.4389 7.40838 28.4954 7.59188 28.5888H8.49378C9.08428 28.3403 9.64559 28.5161 10.4684 27.3219C10.8931 26.7056 11.1542 25.822 11.4245 25.0295C11.8294 23.8421 12.3613 23.3838 13.047 22.599C13.2137 22.4082 13.283 22.3692 13.4711 22.2107L14.3052 21.4777C14.6297 21.2124 14.875 21.0418 15.2312 20.7817C15.5209 20.5703 15.8653 20.3386 16.2128 20.1404C17.3753 19.4775 19.1151 18.395 20.1642 17.5991C21.0051 16.9613 21.5725 16.8508 21.6173 15.8756C21.7126 13.7996 21.6203 11.4842 21.6203 9.38161L21.6207 4.51111C21.6217 3.93611 21.6167 3.6444 21.2667 3.3092C20.4254 2.5028 17.8478 1.9748 16.4386 1.6441C15.5461 1.4346 14.5782 1.30731 13.666 1.17931L10.7662 0.887207Z" fill="#338FFD"/>
<path fill-rule="evenodd" clip-rule="evenodd" d="M24.7521 17.8311C26.008 17.5028 25.8229 15.5942 25.8229 14.4422V4.48694C25.8231 3.64384 25.7915 2.99415 25.4917 2.50645C25.2263 2.07475 24.7548 1.75964 24.2233 1.92074C22.9705 2.30044 23.1511 4.06904 23.1511 5.29854V15.2538C23.1506 16.1595 23.1865 16.6708 23.4975 17.232C23.7475 17.683 24.2985 17.9496 24.7521 17.8311Z" fill="#338FFD"/>
</svg>
