<svg width="26" height="28" viewBox="0 0 26 28" fill="none" xmlns="http://www.w3.org/2000/svg">
<path fill-rule="evenodd" clip-rule="evenodd" d="M7.12431 13.3646C7.27291 13.0727 9.34671 11.727 9.80491 11.454C11.5937 10.3882 13.3653 9.29748 14.8513 7.84328L16.1928 6.31567C17.4301 4.56907 17.0157 4.40487 17.5735 3.09637C18.0058 2.08227 18.4725 2.31227 18.6718 2.94427C19.0271 4.07107 18.5115 5.75368 18.0869 6.69728C17.7759 7.38848 17.2493 8.29068 16.7983 8.87158C16.1818 9.66538 15.421 10.1975 15.7128 11.0926C15.913 11.7067 16.3887 11.8548 17.08 12.0113C18.3115 12.2899 19.576 12.5848 20.7799 12.9056C21.3764 13.0645 22.0858 13.1963 22.4811 13.5302C22.8826 13.8695 23.2609 14.3826 22.9034 15.1397C22.4647 16.0686 21.5881 16.3105 21.2583 16.9567C21.1427 17.1832 21.0272 17.4982 20.9262 17.7636C20.3616 19.2477 18.9088 22.9112 18.1638 24.1429C17.5945 25.0839 17.6826 25.1727 16.956 25.2463C16.2753 25.3153 15.4272 25.2797 14.7429 25.2182C13.2637 25.0851 8.24291 24.3818 7.12461 23.6987L7.12431 13.3646ZM15.4957 27.7025H16.9715C18.1169 27.3734 18.7207 27.7238 19.6886 26.3688C20.6764 24.9861 21.7764 22.5401 22.3966 20.905L23.2463 18.6697C23.3783 18.319 23.4034 18.26 23.6568 18.0574L24.1677 17.5911C24.5985 17.263 25.1573 16.2945 25.3355 15.6743C25.9915 13.3913 24.6032 11.4871 22.2855 10.798C21.7807 10.6479 19.2455 10.0774 19.0454 9.95589C19.5049 9.08639 19.7702 8.94287 20.3271 7.63557C20.6953 6.77117 21.0168 5.79098 21.1221 4.75308C21.2939 3.05988 20.9909 0.957885 19.3686 0.244385C19.1549 0.150385 18.8535 0.0938883 18.67 0.000488281H17.7681C17.1776 0.249088 16.6163 0.0731797 15.7935 1.26738C15.3688 1.88378 15.1077 2.76728 14.8374 3.55988C14.4324 4.74728 13.9005 5.20559 13.2149 5.99039C13.0482 6.18119 12.9788 6.22018 12.7908 6.37868L11.9566 7.11168C11.6321 7.37698 11.3868 7.54768 11.0306 7.80768C10.7409 8.01918 10.3966 8.25077 10.049 8.44897C8.88651 9.11187 7.14671 10.1944 6.09751 10.9903C5.25661 11.6282 4.68931 11.7387 4.64451 12.7139C4.54911 14.7899 4.64151 17.1053 4.64151 19.208L4.6412 24.0786C4.6402 24.6536 4.6452 24.9453 4.9952 25.2805C5.8365 26.0868 8.41411 26.6149 9.82331 26.9456C10.7158 27.1551 11.6837 27.2824 12.596 27.4105L15.4958 27.7025H15.4957Z" fill="#A1D62F"/>
<path fill-rule="evenodd" clip-rule="evenodd" d="M1.50959 10.7586C0.253694 11.0869 0.438793 12.9955 0.438793 14.1475V24.1029C0.438593 24.9461 0.4701 25.5958 0.77 26.0835C1.0354 26.5152 1.5069 26.8303 2.0384 26.6692C3.2912 26.2894 3.1107 24.5208 3.1107 23.2913V13.3359C3.1111 12.4302 3.0752 11.9189 2.7642 11.3577C2.5143 10.9067 1.96319 10.64 1.50959 10.7586Z" fill="#A1D62F"/>
</svg>
