<svg width="23" height="21" viewBox="0 0 23 21" fill="none" xmlns="http://www.w3.org/2000/svg">
<path fill-rule="evenodd" clip-rule="evenodd" d="M11.5589 20.5348L11.8485 20.1372C12.0569 19.8465 12.219 19.6294 12.4356 19.3421C12.6456 19.0635 12.8367 18.8526 13.0576 18.5815C13.1299 18.4929 13.1405 18.4642 13.2193 18.3851L13.7378 17.8345C13.9749 17.5996 14.1635 17.3619 14.4074 17.1203L18.0898 13.7547C18.8761 13.1122 20.1924 11.6619 20.7689 10.8137C22.0578 8.91758 22.6017 6.39748 21.7426 4.19728C20.3089 0.525782 15.7253 -0.702423 12.6581 1.63158C12.3957 1.83128 12.1188 2.05599 11.9195 2.27489L11.2789 3.07259C11.0491 2.82269 10.8955 2.51318 10.6551 2.30318C10.3252 2.01518 10.422 2.02559 9.93366 1.64249C7.83996 -0.000312805 4.63627 0.0775805 2.64507 1.74498L1.93496 2.41669C1.43006 3.07049 1.21446 3.32958 0.867955 4.16098C-0.0034447 6.25158 0.530066 8.92229 1.74067 10.8163C1.92987 11.1124 2.12356 11.3798 2.31426 11.6261L4.74137 14.1064L8.07676 17.1051C8.22876 17.2581 8.24087 17.3306 8.42307 17.4719C8.91877 17.8563 10.5145 19.8207 10.9808 20.5348C11.2391 20.9042 11.3834 20.7646 11.5589 20.5348Z" fill="#CC63A2"/>
</svg>
