<svg width="17" height="26" viewBox="0 0 17 26" fill="none" xmlns="http://www.w3.org/2000/svg">
<path fill-rule="evenodd" clip-rule="evenodd" d="M2.80681 0.931778L4.2491 0.549286C4.2491 1.23229 4.2603 1.61479 4.282 1.70229C5.495 0.888086 7.19971 0.483887 9.39571 0.483887C11.7559 0.483887 13.5261 1.22688 14.6953 2.70738C15.87 4.19378 16.4547 6.26978 16.4547 8.94128C16.4547 11.3069 15.8809 13.2737 14.7283 14.8309C13.5807 16.3881 11.8434 17.1694 9.52161 17.1694C9.13901 17.1694 7.6039 17.0436 4.9212 16.7869C4.9649 18.3437 5.0524 20.7643 5.1779 24.0479C4.9866 24.7034 4.6099 25.0368 4.0582 25.0368C3.6702 25.0368 3.304 24.8838 2.9489 24.5722C2.5993 24.2609 2.3806 23.8838 2.2935 23.4358C2.3589 21.644 2.42431 18.1529 2.50101 12.9679C2.57721 7.78318 2.67561 3.77288 2.80681 0.931778ZM4.57161 3.85498L4.82831 13.8475C5.99751 14.4867 7.3526 14.8092 8.8878 14.8092C10.3575 14.8092 11.603 14.2517 12.6248 13.1429C13.6465 12.0336 14.1599 10.6789 14.1599 9.07788C14.1599 7.34608 13.6244 5.78888 12.5593 4.40128C11.4938 3.01368 10.1662 2.31949 8.56531 2.31949C7.26511 2.31949 5.93211 2.83318 4.57161 3.85498Z" fill="black"/>
<path fill-rule="evenodd" clip-rule="evenodd" d="M4.35091 16.8601L0.7715 15.9669L0.814102 12.8006L5.1678 14.081L4.35091 16.8601Z" fill="black"/>
<path fill-rule="evenodd" clip-rule="evenodd" d="M0.156998 19.4135L7.2957 17.9287L7.2802 19.8568L0.141602 21.3416L0.156998 19.4135Z" fill="black"/>
</svg>
