<svg width="40" height="40" viewBox="0 0 65 55" fill="none" xmlns="http://www.w3.org/2000/svg">
    <path fill-rule="evenodd" clip-rule="evenodd" d="M58.8306 19.3925C57.8076 20.4837 56.4328 20.0252 56.0688 19.3492C51.1043 10.1247 43.5661 7.46899 36.3189 7.53969C30.6593 7.59569 24.7934 10.5175 19.6539 14.1155L21.4518 16.6725C22.6927 18.2014 21.7163 18.5514 19.2229 19.2177L3.51896 23.6144C0.944662 24.3238 1.36676 23.4592 2.67936 21.2955L11.2189 6.71089C12.5528 4.47269 13.1072 4.98749 14.2874 6.48449L16.6105 9.78779C22.3166 4.87269 29.5578 2.39929 36.2778 2.33329C44.568 2.25239 55.1216 6.07129 58.9895 15.0252C60.0919 17.5763 60.0066 17.9027 58.8306 19.3925Z" fill="#898989" stroke="#898989" stroke-width="2.8346"/>
    <path fill-rule="evenodd" clip-rule="evenodd" d="M6.24675 35.8093C7.26975 34.7182 8.64459 35.1767 9.00859 35.8526C13.9731 45.0772 21.5113 47.7328 28.7585 47.6622C34.4181 47.6061 40.284 44.6843 45.4235 41.0864L43.6255 38.5294C42.3846 37.0004 43.361 36.6504 45.8544 35.9841L61.5584 31.5875C64.1327 30.8781 63.7106 31.7426 62.398 33.9063L53.8584 48.4909C52.5245 50.7291 51.9703 50.2143 50.7901 48.7174L48.4668 45.414C42.7607 50.3291 35.5196 52.8025 28.7996 52.8686C20.5093 52.9495 9.95571 49.1305 6.08781 40.1767C4.98541 37.6255 5.07075 37.2992 6.24675 35.8093Z" fill="#338FFD" stroke="#338FFD" stroke-width="2.8346"/>
</svg>
