<svg class="svg_game js-svg_game" xmlns="http://www.w3.org/2000/svg" fill="none" viewBox="0 0 1050 704">
    <defs>
    <filter id="star0_d" width="19.5965" height="19.1271" x=".701782" y=".456177" color-interpolation-filters="sRGB" filterUnits="userSpaceOnUse">
            <feFlood flood-opacity="0" result="BackgroundImageFix"/>
            <feColorMatrix in="SourceAlpha" values="0 0 0 0 0 0 0 0 0 0 0 0 0 0 0 0 0 0 127 0"/>
            <feOffset dy="4"/>
            <feGaussianBlur stdDeviation="2"/>
            <feColorMatrix values="0 0 0 0 0 0 0 0 0 0 0 0 0 0 0 0 0 0 0.25 0"/>
            <feBlend in2="BackgroundImageFix" result="effect1_dropShadow"/>
            <feBlend in="SourceGraphic" in2="effect1_dropShadow" result="shape"/>
        </filter>

        <symbol id="star_0">
            <g filter="url(#star0_d)">
                <path fill="#E27070" d="M9.58663 1.04906c.35236-.790489 1.47437-.790489 1.82677 0l.9237 2.07235c.1453.32603.4534.54988.8084.58734l2.2564.23815c.8607.09084 1.2074 1.15794.5645 1.73733l-1.6855 1.51893c-.2651.23897-.3828.60116-.3088.95034l.4708 2.2195c.1796.8467-.7281 1.5062-1.4778 1.0738l-1.9655-1.1336c-.3092-.1784-.69-.1784-.9992 0l-1.96545 1.1336c-.74971.4324-1.65744-.2271-1.47786-1.0738l.47076-2.2195c.07407-.34918-.04361-.71137-.30878-.95034L5.0336 5.68423c-.64291-.57939-.29619-1.64649.56449-1.73733l2.25638-.23815c.35499-.03746.66308-.26131.80841-.58734l.92375-2.07235z"/>
                <path stroke="#fff" stroke-width=".5" d="M11.185 1.15084l.9238 2.07236c.1816.40753.5668.68734 1.0105.73417l2.2564.23815c.6455.06813.9055.86846.4233 1.303l-1.6854 1.51893c-.3315.29871-.4786.75144-.386 1.18792l.4708 2.21953c.1346.635-.5462 1.1296-1.1084.8053l-1.9655-1.1336c-.3865-.22292-.8625-.22292-1.24903 0l-1.96543 1.1336c-.56228.3243-1.24307-.1703-1.10839-.8053l.47076-2.21953c.09258-.43648-.05452-.88921-.38598-1.18792L5.20096 5.49852c-.48218-.43454-.22214-1.23487.42337-1.303l2.25638-.23815c.44373-.04683.82885-.32664 1.01051-.73417l.92375-2.07236c.26423-.592864 1.10583-.592864 1.37003 0z"/>
            </g>
        </symbol>
        <symbol id="star_1">
            <g filter="url(#star0_d)">
                <path fill="#3892B2" d="M9.58663 1.04906c.35236-.790489 1.47437-.790489 1.82677 0l.9237 2.07235c.1453.32603.4534.54988.8084.58734l2.2564.23815c.8607.09084 1.2074 1.15794.5645 1.73733l-1.6855 1.51893c-.2651.23897-.3828.60116-.3088.95034l.4708 2.2195c.1796.8467-.7281 1.5062-1.4778 1.0738l-1.9655-1.1336c-.3092-.1784-.69-.1784-.9992 0l-1.96545 1.1336c-.74971.4324-1.65744-.2271-1.47786-1.0738l.47076-2.2195c.07407-.34918-.04361-.71137-.30878-.95034L5.0336 5.68423c-.64291-.57939-.29619-1.64649.56449-1.73733l2.25638-.23815c.35499-.03746.66308-.26131.80841-.58734l.92375-2.07235z"/>
                <path stroke="#fff" stroke-width=".5" d="M11.185 1.15084l.9238 2.07236c.1816.40753.5668.68734 1.0105.73417l2.2564.23815c.6455.06813.9055.86846.4233 1.303l-1.6854 1.51893c-.3315.29871-.4786.75144-.386 1.18792l.4708 2.21953c.1346.635-.5462 1.1296-1.1084.8053l-1.9655-1.1336c-.3865-.22292-.8625-.22292-1.24903 0l-1.96543 1.1336c-.56228.3243-1.24307-.1703-1.10839-.8053l.47076-2.21953c.09258-.43648-.05452-.88921-.38598-1.18792L5.20096 5.49852c-.48218-.43454-.22214-1.23487.42337-1.303l2.25638-.23815c.44373-.04683.82885-.32664 1.01051-.73417l.92375-2.07236c.26423-.592864 1.10583-.592864 1.37003 0z"/>
            </g>
        </symbol>
        <symbol id="star_3">
            <g filter="url(#star0_d)">
                <path fill="#D889DF" d="M9.58663 1.04906c.35236-.790489 1.47437-.790489 1.82677 0l.9237 2.07235c.1453.32603.4534.54988.8084.58734l2.2564.23815c.8607.09084 1.2074 1.15794.5645 1.73733l-1.6855 1.51893c-.2651.23897-.3828.60116-.3088.95034l.4708 2.2195c.1796.8467-.7281 1.5062-1.4778 1.0738l-1.9655-1.1336c-.3092-.1784-.69-.1784-.9992 0l-1.96545 1.1336c-.74971.4324-1.65744-.2271-1.47786-1.0738l.47076-2.2195c.07407-.34918-.04361-.71137-.30878-.95034L5.0336 5.68423c-.64291-.57939-.29619-1.64649.56449-1.73733l2.25638-.23815c.35499-.03746.66308-.26131.80841-.58734l.92375-2.07235z"/>
                <path stroke="#fff" stroke-width=".5" d="M11.185 1.15084l.9238 2.07236c.1816.40753.5668.68734 1.0105.73417l2.2564.23815c.6455.06813.9055.86846.4233 1.303l-1.6854 1.51893c-.3315.29871-.4786.75144-.386 1.18792l.4708 2.21953c.1346.635-.5462 1.1296-1.1084.8053l-1.9655-1.1336c-.3865-.22292-.8625-.22292-1.24903 0l-1.96543 1.1336c-.56228.3243-1.24307-.1703-1.10839-.8053l.47076-2.21953c.09258-.43648-.05452-.88921-.38598-1.18792L5.20096 5.49852c-.48218-.43454-.22214-1.23487.42337-1.303l2.25638-.23815c.44373-.04683.82885-.32664 1.01051-.73417l.92375-2.07236c.26423-.592864 1.10583-.592864 1.37003 0z"/>
            </g>
        </symbol>
        <symbol id="star_2">
            <g filter="url(#star0_d)">
                <path fill="#67CB6B" d="M9.58663 1.04906c.35236-.790489 1.47437-.790489 1.82677 0l.9237 2.07235c.1453.32603.4534.54988.8084.58734l2.2564.23815c.8607.09084 1.2074 1.15794.5645 1.73733l-1.6855 1.51893c-.2651.23897-.3828.60116-.3088.95034l.4708 2.2195c.1796.8467-.7281 1.5062-1.4778 1.0738l-1.9655-1.1336c-.3092-.1784-.69-.1784-.9992 0l-1.96545 1.1336c-.74971.4324-1.65744-.2271-1.47786-1.0738l.47076-2.2195c.07407-.34918-.04361-.71137-.30878-.95034L5.0336 5.68423c-.64291-.57939-.29619-1.64649.56449-1.73733l2.25638-.23815c.35499-.03746.66308-.26131.80841-.58734l.92375-2.07235z"/>
                <path stroke="#fff" stroke-width=".5" d="M11.185 1.15084l.9238 2.07236c.1816.40753.5668.68734 1.0105.73417l2.2564.23815c.6455.06813.9055.86846.4233 1.303l-1.6854 1.51893c-.3315.29871-.4786.75144-.386 1.18792l.4708 2.21953c.1346.635-.5462 1.1296-1.1084.8053l-1.9655-1.1336c-.3865-.22292-.8625-.22292-1.24903 0l-1.96543 1.1336c-.56228.3243-1.24307-.1703-1.10839-.8053l.47076-2.21953c.09258-.43648-.05452-.88921-.38598-1.18792L5.20096 5.49852c-.48218-.43454-.22214-1.23487.42337-1.303l2.25638-.23815c.44373-.04683.82885-.32664 1.01051-.73417l.92375-2.07236c.26423-.592864 1.10583-.592864 1.37003 0z"/>
            </g>
        </symbol>
        <symbol id="star_4">
            <g filter="url(#star0_d)">
                <path fill="#43C8A8" d="M9.58663 1.04906c.35236-.790489 1.47437-.790489 1.82677 0l.9237 2.07235c.1453.32603.4534.54988.8084.58734l2.2564.23815c.8607.09084 1.2074 1.15794.5645 1.73733l-1.6855 1.51893c-.2651.23897-.3828.60116-.3088.95034l.4708 2.2195c.1796.8467-.7281 1.5062-1.4778 1.0738l-1.9655-1.1336c-.3092-.1784-.69-.1784-.9992 0l-1.96545 1.1336c-.74971.4324-1.65744-.2271-1.47786-1.0738l.47076-2.2195c.07407-.34918-.04361-.71137-.30878-.95034L5.0336 5.68423c-.64291-.57939-.29619-1.64649.56449-1.73733l2.25638-.23815c.35499-.03746.66308-.26131.80841-.58734l.92375-2.07235z"/>
                <path stroke="#fff" stroke-width=".5" d="M11.185 1.15084l.9238 2.07236c.1816.40753.5668.68734 1.0105.73417l2.2564.23815c.6455.06813.9055.86846.4233 1.303l-1.6854 1.51893c-.3315.29871-.4786.75144-.386 1.18792l.4708 2.21953c.1346.635-.5462 1.1296-1.1084.8053l-1.9655-1.1336c-.3865-.22292-.8625-.22292-1.24903 0l-1.96543 1.1336c-.56228.3243-1.24307-.1703-1.10839-.8053l.47076-2.21953c.09258-.43648-.05452-.88921-.38598-1.18792L5.20096 5.49852c-.48218-.43454-.22214-1.23487.42337-1.303l2.25638-.23815c.44373-.04683.82885-.32664 1.01051-.73417l.92375-2.07236c.26423-.592864 1.10583-.592864 1.37003 0z"/>
            </g>
        </symbol>
        <symbol id="star_5">
            <g filter="url(#star0_d)">
                <path fill="#9EA1EB" d="M9.58663 1.04906c.35236-.790489 1.47437-.790489 1.82677 0l.9237 2.07235c.1453.32603.4534.54988.8084.58734l2.2564.23815c.8607.09084 1.2074 1.15794.5645 1.73733l-1.6855 1.51893c-.2651.23897-.3828.60116-.3088.95034l.4708 2.2195c.1796.8467-.7281 1.5062-1.4778 1.0738l-1.9655-1.1336c-.3092-.1784-.69-.1784-.9992 0l-1.96545 1.1336c-.74971.4324-1.65744-.2271-1.47786-1.0738l.47076-2.2195c.07407-.34918-.04361-.71137-.30878-.95034L5.0336 5.68423c-.64291-.57939-.29619-1.64649.56449-1.73733l2.25638-.23815c.35499-.03746.66308-.26131.80841-.58734l.92375-2.07235z"/>
                <path stroke="#fff" stroke-width=".5" d="M11.185 1.15084l.9238 2.07236c.1816.40753.5668.68734 1.0105.73417l2.2564.23815c.6455.06813.9055.86846.4233 1.303l-1.6854 1.51893c-.3315.29871-.4786.75144-.386 1.18792l.4708 2.21953c.1346.635-.5462 1.1296-1.1084.8053l-1.9655-1.1336c-.3865-.22292-.8625-.22292-1.24903 0l-1.96543 1.1336c-.56228.3243-1.24307-.1703-1.10839-.8053l.47076-2.21953c.09258-.43648-.05452-.88921-.38598-1.18792L5.20096 5.49852c-.48218-.43454-.22214-1.23487.42337-1.303l2.25638-.23815c.44373-.04683.82885-.32664 1.01051-.73417l.92375-2.07236c.26423-.592864 1.10583-.592864 1.37003 0z"/>
            </g>
        </symbol>
        <symbol id="star_6">
            <g filter="url(#star0_d)">
                <path fill="#CD52C1" d="M9.58663 1.04906c.35236-.790489 1.47437-.790489 1.82677 0l.9237 2.07235c.1453.32603.4534.54988.8084.58734l2.2564.23815c.8607.09084 1.2074 1.15794.5645 1.73733l-1.6855 1.51893c-.2651.23897-.3828.60116-.3088.95034l.4708 2.2195c.1796.8467-.7281 1.5062-1.4778 1.0738l-1.9655-1.1336c-.3092-.1784-.69-.1784-.9992 0l-1.96545 1.1336c-.74971.4324-1.65744-.2271-1.47786-1.0738l.47076-2.2195c.07407-.34918-.04361-.71137-.30878-.95034L5.0336 5.68423c-.64291-.57939-.29619-1.64649.56449-1.73733l2.25638-.23815c.35499-.03746.66308-.26131.80841-.58734l.92375-2.07235z"/>
                <path stroke="#fff" stroke-width=".5" d="M11.185 1.15084l.9238 2.07236c.1816.40753.5668.68734 1.0105.73417l2.2564.23815c.6455.06813.9055.86846.4233 1.303l-1.6854 1.51893c-.3315.29871-.4786.75144-.386 1.18792l.4708 2.21953c.1346.635-.5462 1.1296-1.1084.8053l-1.9655-1.1336c-.3865-.22292-.8625-.22292-1.24903 0l-1.96543 1.1336c-.56228.3243-1.24307-.1703-1.10839-.8053l.47076-2.21953c.09258-.43648-.05452-.88921-.38598-1.18792L5.20096 5.49852c-.48218-.43454-.22214-1.23487.42337-1.303l2.25638-.23815c.44373-.04683.82885-.32664 1.01051-.73417l.92375-2.07236c.26423-.592864 1.10583-.592864 1.37003 0z"/>
            </g>
        </symbol>
        <symbol id="star_7">
            <g filter="url(#star0_d)">
                <path fill="#6770E1" d="M9.58663 1.04906c.35236-.790489 1.47437-.790489 1.82677 0l.9237 2.07235c.1453.32603.4534.54988.8084.58734l2.2564.23815c.8607.09084 1.2074 1.15794.5645 1.73733l-1.6855 1.51893c-.2651.23897-.3828.60116-.3088.95034l.4708 2.2195c.1796.8467-.7281 1.5062-1.4778 1.0738l-1.9655-1.1336c-.3092-.1784-.69-.1784-.9992 0l-1.96545 1.1336c-.74971.4324-1.65744-.2271-1.47786-1.0738l.47076-2.2195c.07407-.34918-.04361-.71137-.30878-.95034L5.0336 5.68423c-.64291-.57939-.29619-1.64649.56449-1.73733l2.25638-.23815c.35499-.03746.66308-.26131.80841-.58734l.92375-2.07235z"/>
                <path stroke="#fff" stroke-width=".5" d="M11.185 1.15084l.9238 2.07236c.1816.40753.5668.68734 1.0105.73417l2.2564.23815c.6455.06813.9055.86846.4233 1.303l-1.6854 1.51893c-.3315.29871-.4786.75144-.386 1.18792l.4708 2.21953c.1346.635-.5462 1.1296-1.1084.8053l-1.9655-1.1336c-.3865-.22292-.8625-.22292-1.24903 0l-1.96543 1.1336c-.56228.3243-1.24307-.1703-1.10839-.8053l.47076-2.21953c.09258-.43648-.05452-.88921-.38598-1.18792L5.20096 5.49852c-.48218-.43454-.22214-1.23487.42337-1.303l2.25638-.23815c.44373-.04683.82885-.32664 1.01051-.73417l.92375-2.07236c.26423-.592864 1.10583-.592864 1.37003 0z"/>
            </g>
        </symbol>
        <filter id="filter0_d" x="0.5" y="0.5" width="26" height="26" filterUnits="userSpaceOnUse" color-interpolation-filters="sRGB">
            <feFlood flood-opacity="0" result="BackgroundImageFix"/>
            <feColorMatrix in="SourceAlpha" type="matrix" values="0 0 0 0 0 0 0 0 0 0 0 0 0 0 0 0 0 0 127 0"/>
            <feOffset dy="4"/>
            <feGaussianBlur stdDeviation="2"/>
            <feColorMatrix type="matrix" values="0 0 0 0 0 0 0 0 0 0 0 0 0 0 0 0 0 0 0.25 0"/>
            <feBlend mode="normal" in2="BackgroundImageFix" result="effect1_dropShadow"/>
            <feBlend mode="normal" in="SourceGraphic" in2="effect1_dropShadow" result="shape"/>
        </filter>

        <symbol id="chip_0">
            <g filter="url(#filter0_d)">
                <circle cx="13.5" cy="9.5" r="8.5" fill="#E27070"/>
                <circle cx="13.5" cy="9.5" r="8.5" stroke="white"/>
                <path d="M14.1768 13H13.3594V7.58154L11.7202 8.18359V7.44531L14.0493 6.5708H14.1768V13Z" fill="white"/>
            </g>
        </symbol>
        <symbol id="chip_1">
            <g filter="url(#filter0_d)">
                <circle cx="13.5" cy="9.5" r="8.5" fill="#3895B2"/>
                <circle cx="13.5" cy="9.5" r="8.5" stroke="white"/>
                <path fill="#fff" d="M15.6973 13h-4.1924v-.5845l2.2148-2.46091c.3282-.37207.5537-.67383.6768-.90527.126-.23438.1889-.47608.1889-.7251 0-.33399-.101-.60791-.3032-.82178-.2021-.21387-.4717-.3208-.8086-.3208-.4043 0-.7192.11572-.9448.34717-.2226.22851-.334.54785-.334.95801h-.813c0-.58887.189-1.06494.5669-1.42823.3809-.36328.8892-.54492 1.5249-.54492.5948 0 1.065.15674 1.4107.47022.3457.31054.5185.72509.5185 1.24365 0 .62988-.4013 1.37988-1.2041 2.24996l-1.7138 1.8589h3.2124V13z"/>
            </g>
        </symbol>
        <symbol id="chip_2">
            <g filter="url(#filter0_d)">
                <circle cx="13.5" cy="9.5" r="8.5" fill="#67CB6B"/>
                <circle cx="13.5" cy="9.5" r="8.5" stroke="white"/>
                <path fill="#fff" d="M12.687 9.40527h.6109c.3837-.00586.6855-.10693.9052-.30322.2198-.19629.3296-.46143.3296-.79541 0-.75-.3735-1.125-1.1206-1.125-.3516 0-.6328.10107-.8437.30322-.208.19922-.3121.46436-.3121.79541h-.8129c0-.50683.1845-.92724.5537-1.26123.372-.33691.8437-.50537 1.415-.50537.6035 0 1.0767.15967 1.4194.47901.3428.31933.5142.76318.5142 1.33154 0 .27832-.0908.54785-.2725.80859-.1787.26074-.4233.45557-.7338.58448.3515.11132.6225.29591.8129.55371.1934.2578.2901.5728.2901.9448 0 .5742-.1875 1.0298-.5625 1.3667s-.8628.5054-1.4634.5054-1.0898-.1626-1.4678-.4878c-.375-.3252-.5625-.7544-.5625-1.2876h.8174c0 .3369.1099.6064.3296.8086.2197.2021.5142.3032.8833.3032.3926 0 .6929-.1025.9009-.3076.208-.2051.312-.4995.312-.8833 0-.3721-.1143-.6577-.3428-.8569-.2285-.1993-.5581-.3018-.9887-.3077h-.6109v-.66353z"/>
            </g>
        </symbol>
        <symbol id="chip_3">
            <g filter="url(#filter0_d)">
                <circle cx="13.5" cy="9.5" r="8.5" fill="#D889DF"/>
                <circle cx="13.5" cy="9.5" r="8.5" stroke="white"/>
                <path fill="#fff" d="M14.937 10.8511h.8877v.6635h-.8877V13h-.8174v-1.4854h-2.9135v-.479l2.8652-4.43404h.8657v4.24954zm-2.8081 0h1.9907V7.71338l-.0967.17578-1.894 2.96194z"/>
            </g>
        </symbol>
        <symbol id="chip_4">
            <g filter="url(#filter0_d)">
                <circle cx="13.5" cy="9.5" r="8.5" fill="#43C8A8"/>
                <circle cx="13.5" cy="9.5" r="8.5" stroke="white"/>
                <path fill="#fff" d="M11.8784 9.79199l.3252-3.19043h3.2783v.75147h-2.5883l-.1934 1.74463c.3135-.18457.6694-.27686 1.0679-.27686.583 0 1.0459.19336 1.3886.58008.3428.38379.5142.90382.5142 1.56002 0 .6592-.1787 1.1792-.5361 1.5601-.3545.3779-.8511.5669-1.4898.5669-.5654 0-1.0268-.1567-1.3843-.4702-.3574-.3135-.561-.7471-.6108-1.3008h.769c.0499.3662.1802.6431.3912.8306.2109.1845.4892.2768.8349.2768.3779 0 .6738-.1289.8877-.3867.2168-.2578.3252-.6138.3252-1.0679 0-.4277-.1172-.7705-.3516-1.02829-.2314-.26075-.5405-.39112-.9272-.39112-.3545 0-.6328.07764-.835.23291l-.2153.17578-.6504-.16699z"/>
            </g>
        </symbol>
        <symbol id="chip_5">
            <g filter="url(#filter0_d)">
                <circle cx="13.5" cy="9.5" r="8.5" fill="#9EA1EB"/>
                <circle cx="13.5" cy="9.5" r="8.5" stroke="white"/>
                <path fill="#fff" d="M14.6953 6.59717v.68994h-.1494c-.6328.01172-1.1367.19922-1.5117.5625s-.5918.87451-.6504 1.53369c.3369-.38672.7969-.58008 1.3799-.58008.5566 0 1.0005.19629 1.3315.58887.334.39258.501.89941.501 1.52051 0 .6592-.1802 1.1865-.5405 1.582-.3575.3955-.8379.5933-1.4414.5933-.6123 0-1.1089-.2344-1.4898-.7031-.3808-.4717-.5713-1.0782-.5713-1.8194v-.312c0-1.17772.2505-2.07713.7515-2.69822.5039-.62403 1.2524-.94336 2.2456-.95801h.145zm-1.0679 2.88281c-.2783 0-.5346.0835-.769.25049-.2344.16699-.397.37643-.4878.62843v.2988c0 .5274.1187.9522.356 1.2744.2373.3223.5332.4834.8877.4834.3662 0 .6533-.1347.8613-.4043.2109-.2695.3164-.6225.3164-1.0591 0-.4394-.1069-.7939-.3208-1.06343-.2109-.27246-.4922-.40869-.8438-.40869z"/>
            </g>
        </symbol>
        <symbol id="chip_6">
            <g filter="url(#filter0_d)">
                <circle cx="13.5" cy="9.5" r="8.5" fill="#CD52C1"/>
                <circle cx="13.5" cy="9.5" r="8.5" stroke="white"/>
                <path fill="#fff" d="M15.6357 7.05859L12.9858 13h-.8525l2.6411-5.73047h-3.4629v-.66797h4.3242v.45703z"/>
            </g>
        </symbol>
        <symbol id="chip_7">
            <g filter="url(#filter0_d)">
                <circle cx="13.5" cy="9.5" r="8.5" fill="#6370E1"/>
                <circle cx="13.5" cy="9.5" r="8.5" stroke="white"/>
                <path fill="#fff" d="M15.3853 8.27148c0 .31934-.085.60352-.2549.85254-.167.24903-.3941.44385-.6812.58448.334.14355.5977.353.791.6284.1963.2754.2945.5874.2945.936 0 .5538-.1875.9947-.5625 1.3228-.3721.3281-.8628.4922-1.4722.4922-.6152 0-1.1089-.1641-1.481-.4922-.3691-.3311-.5537-.772-.5537-1.3228 0-.3457.0938-.6577.2813-.936.1904-.2783.4526-.48924.7866-.6328-.2842-.14062-.5083-.33545-.6724-.58447-.164-.24902-.2461-.53174-.2461-.84815 0-.53906.1729-.96679.5186-1.2832.3457-.3164.8013-.47461 1.3667-.47461.5625 0 1.0166.15821 1.3623.47461.3486.31641.523.74414.523 1.2832zm-.6636 2.98392c0-.3575-.1143-.649-.3428-.8745-.2256-.2256-.5215-.3384-.8877-.3384-.3662 0-.6606.1113-.8833.334-.2197.2226-.3296.5156-.3296.8789 0 .3633.107.6489.3208.8569.2168.208.5171.312.9009.312.3809 0 .6797-.104.8965-.312.2168-.2109.3252-.4966.3252-.8569zM13.5 7.18164c-.3193 0-.5786.09961-.7778.29883-.1963.19629-.2945.46435-.2945.8042 0 .32519.0967.58887.2901.79101.1963.19922.457.29883.7822.29883s.5845-.09961.7778-.29883c.1963-.20214.2945-.46582.2945-.79101 0-.3252-.1011-.59033-.3033-.79541-.2021-.20508-.4585-.30762-.769-.30762z"/>
            </g>
        </symbol>

    </defs>

</svg>

