<svg width="350" height="348" viewBox="0 0 350 348" fill="none" xmlns="http://www.w3.org/2000/svg">
<path fill-rule="evenodd" clip-rule="evenodd" d="M182.446 16.1699C204.032 16.1699 225.406 20.4216 245.349 28.6821C265.292 36.9427 283.412 49.0504 298.676 64.3139C313.939 79.5774 326.047 97.6979 334.307 117.641C342.568 137.583 346.82 158.958 346.82 180.544C346.82 213.054 337.179 244.834 319.118 271.865C301.056 298.896 275.384 319.964 245.349 332.405C215.314 344.847 182.263 348.102 150.378 341.759C118.493 335.417 89.204 319.762 66.2159 296.774C43.2278 273.786 27.5727 244.497 21.2302 212.612C14.8878 180.726 18.143 147.676 30.5841 117.641C43.0251 87.6053 64.0934 61.9336 91.1245 43.8719C118.156 25.8103 149.936 16.1699 182.446 16.1699Z" fill="#338FFD" stroke="#338FFD" stroke-width="5"/>
<path fill-rule="evenodd" clip-rule="evenodd" d="M168.75 4.27881C212.345 4.27881 254.154 21.5967 284.98 52.4228C315.806 83.2489 333.124 125.058 333.124 168.653C333.124 201.163 323.484 232.943 305.422 259.974C287.361 287.005 261.689 308.073 231.654 320.514C201.618 332.955 168.568 336.211 136.683 329.868C104.797 323.526 75.5086 307.871 52.5205 284.883C29.5324 261.895 13.8773 232.606 7.53494 200.72C1.19253 168.835 4.44768 135.785 16.8888 105.75C29.3298 75.7141 50.398 50.0424 77.4292 31.9808C104.46 13.9192 136.24 4.27881 168.75 4.27881Z" fill="white" stroke="#338FFD" stroke-width="7.9999"/>
<path fill-rule="evenodd" clip-rule="evenodd" d="M121.866 245.501L107.915 230.468L104.608 230.516L105.119 265.692C108.176 265.648 111.233 265.603 114.289 265.559L114.062 249.925L121.592 257.634L122.594 257.619L129.947 249.694L130.174 265.328C133.23 265.284 136.287 265.239 139.344 265.195L138.832 230.018L135.625 230.065L121.866 245.501ZM181.832 247.085C181.48 222.833 145.501 223.356 145.854 247.608C146.207 271.911 182.186 271.388 181.832 247.085ZM155.074 247.474C154.891 234.847 172.479 234.591 172.662 247.219C172.847 259.946 155.259 260.202 155.074 247.474ZM192.359 264.424L189.152 264.471L188.642 229.395C191.699 229.35 194.755 229.305 197.812 229.261L198.061 246.423L215.549 228.853L218.806 228.805L219.318 264.032C216.261 264.077 213.154 264.122 210.048 264.167L209.797 246.93L192.359 264.424ZM201.31 218.234C199.558 218.36 197.857 218.585 196.157 218.81C196.389 224.42 199.588 227.331 205 227.252C210.562 227.171 213.526 224.171 213.645 218.556C211.938 218.38 210.231 218.205 208.476 218.13C208.206 220.239 206.862 220.91 204.808 220.94C202.703 220.97 201.488 220.086 201.31 218.234ZM119.238 280.465C119.185 276.808 116.212 274.011 112.556 274.064L103.522 274.195L103.83 295.346L113.74 295.202C118.061 295.139 120.253 292.115 120.23 288.429C120.203 286.555 119.364 284.996 117.629 284.145C118.644 283.284 119.256 281.733 119.238 280.465ZM113.225 286.808C115.401 286.776 115.483 290.371 113.308 290.403L108.987 290.466L108.934 286.87L113.225 286.808ZM112.204 278.905C114.379 278.873 114.429 282.287 112.283 282.318L108.869 282.368L108.819 278.954L112.204 278.905ZM124.25 273.894L124.557 295.045L133.864 294.909C143.985 294.732 143.77 279.927 133.648 280.074L129.75 280.13L129.658 273.815L124.25 273.894ZM133.688 284.939C136.649 284.896 136.905 290 133.763 290.076C132.494 290.124 131.134 290.113 129.895 290.132L129.821 284.995L133.688 284.939ZM145.436 294.741L150.844 294.663L150.537 273.512L145.128 273.591L145.436 294.741ZM165.368 285.476C168.329 285.433 168.42 289.571 165.428 289.615C164.16 289.633 162.8 289.653 161.561 289.671L161.501 285.532L165.368 285.476ZM161.431 280.758L161.394 278.189L171.184 278.047L171.114 273.213L155.915 273.434L156.223 294.585L165.529 294.449C175.651 294.272 175.451 280.554 165.329 280.701L161.431 280.758ZM197.434 283.438C197.221 268.814 175.527 269.129 175.739 283.753C175.953 298.408 197.647 298.092 197.434 283.438ZM181.299 283.673C181.188 276.058 191.794 275.904 191.905 283.518C192.016 291.193 181.411 291.347 181.299 283.673ZM207.075 293.845L206.996 288.437L210.894 288.38C221.016 288.233 220.788 272.521 210.665 272.638C207.553 272.683 204.411 272.729 201.359 272.773C201.462 279.844 201.564 286.884 201.666 293.924C203.449 293.898 205.262 293.872 207.075 293.845ZM210.793 283.516L206.926 283.572C206.9 281.85 206.863 279.251 206.838 277.529C208.077 277.511 209.436 277.461 210.705 277.473C213.848 277.457 213.754 283.473 210.793 283.516Z" fill="#338FFD"/>
<path fill-rule="evenodd" clip-rule="evenodd" d="M194.742 192.552C198.509 191.762 206.68 192.827 211.172 192.789C215.781 192.751 221.858 192.576 226.222 191.6L229.279 190.709C230.244 198.708 226.074 204.466 220.128 206.165C216.733 207.57 201.852 207.149 197.208 206.589C191.303 206.292 186.6 206.176 183.284 202.667C180.589 199.815 178.471 194.059 181.065 189.487C183.331 189.919 184.946 191.025 187.613 191.435C189.654 191.749 193.001 191.543 194.742 192.552ZM224.725 185.358L223.532 185.903C223.377 185.948 223.231 185.988 223.059 186.028C222.762 186.096 221.756 186.209 221.421 186.243L211.742 186.727C207.079 186.796 202.55 186.564 197.94 186.32C190.795 185.713 185.008 185.917 181.176 181.488C176.732 176.352 177.431 170.83 180.466 165.115C187.863 167.178 193.736 166.436 201.624 166.312C211.923 166.149 220.822 164.523 230.355 162.965L232.993 162.591C234.974 167.046 237.744 170.576 234.622 177.226C233.028 180.621 229.167 185.399 224.725 185.358ZM233.76 155.266C232.245 156.674 228.985 156.984 226.833 157.451C221.094 158.695 206.753 160.953 202.098 159.855C199.711 161.197 187.346 160.873 184.09 159.832C179.576 158.389 176.062 154.432 175.764 148.673C175.106 135.938 187.846 134.563 198.959 132.842C207.65 131.248 217.495 130.086 226.563 129.671C233.256 130.674 237.962 134.476 239.8 139.934C242.208 147.085 237.56 154.523 233.76 155.266ZM224.767 123.715C219.744 123.921 214.765 124.481 209.766 125.098C205.595 125.612 199.342 127.155 195.58 126.833C194.762 127.499 183.028 130.386 181.587 130.391C174.959 130.414 168.363 116.464 177.673 108.921C180.164 106.903 186.838 105.071 190.719 104.485C194.703 102.774 214.498 98.4625 217.944 100.472C223.022 100.544 227.83 105.186 229.472 108.758C232.266 114.84 230.144 119.801 227.223 123.582L224.767 123.715ZM135.523 47.6283C140.717 44.0679 150.041 45.0821 155.01 48.0429C165.392 54.2294 169.797 70.2333 170.82 82.2126C171.496 90.1215 170.637 97.0172 174.792 103.222L171.737 106.234C166.603 113.047 165.079 120.975 169.994 129.052C171.622 131.728 173.124 132.532 175.025 134.459L171.359 139.871C167.872 149.751 170.135 155.639 175.334 161.725C173.723 165.995 171.747 167.264 171.97 173.667C172.145 178.687 174.565 181.814 176.027 185.264C176.962 186.628 175.419 188.258 174.953 190.838C174.476 193.475 174.719 195.512 175.008 198.122C176.225 201.43 176.621 202.933 178.718 205.522C181.056 208.407 182.286 208.166 185.07 210.468C170.694 214.503 155.843 213.135 141.574 209.746C127.841 206.485 134.244 205.541 122.936 209.272C118.617 210.697 108.104 213.793 103.81 213.993C101.365 211.002 98.1618 204.833 97.093 200.924C90.7397 192.127 88.324 153.46 93.2621 140.717L119.147 140.086C120.767 137.254 121.817 132.655 123.652 129.308C129.505 118.633 139.366 108.862 138.691 99.2285C138.101 90.7891 137.632 79.5757 135.748 71.8585C134.761 67.817 133.887 63.6749 133.243 59.5032C132.503 54.7149 131.356 48.5142 135.523 47.6283ZM240.217 158.571L241.554 157.262C245.014 151.794 248.404 147.62 245.702 138.558C243.93 132.617 239.003 127.272 233.683 125.562C235.971 118.432 238.997 114.823 234.918 106.167C227.858 91.1832 212.924 93.5579 200.461 95.9293C195.207 96.9291 184.967 100.229 180.502 100.49C174.257 84.4398 181.266 75.3471 169.161 53.7703C165.772 47.7281 160.464 42.5047 153.768 40.1958C146.514 37.6943 134.556 38.8432 129.704 43.3226C124.582 48.0521 126.622 60.5471 128.072 67.6165C130.012 77.0824 130.766 83.0372 131.555 93.0338C132.596 106.222 131.384 105.505 125.215 114.385C122.338 118.526 115.96 128.062 114.717 133.625C110.059 133.378 90.9297 133.334 88.0611 135.16C85.6452 138.21 84.3574 152.901 84.0936 157.858C82.8388 181.435 87.6865 203.509 100.97 221.453C110.351 221.327 127.869 212.838 133.024 214.258C136.719 215.276 140.125 216.213 143.94 217.022C160.071 220.44 176.807 220.944 191.822 215.08C196.967 213.07 196.053 211.885 202.646 212.25C215.604 212.967 227.254 212.851 232.858 201.573C237.902 191.424 231.137 189.956 236.115 185.549C244.793 177.868 241.983 168.311 238.627 160.021C239.471 159.05 239.304 159.192 240.217 158.571Z" fill="#338FFD"/>
<path fill-rule="evenodd" clip-rule="evenodd" d="M76.98 100.331L108.745 108.296C109.671 107.533 109.447 108.443 108.915 106.93L105.758 101.7C102.928 97.1693 94.6193 81.8908 92.7747 80.1733L76.98 100.331Z" fill="#338FFD"/>
<path fill-rule="evenodd" clip-rule="evenodd" d="M238.294 210.836C242.047 212.846 246.375 214.904 250.306 216.688C253.343 218.065 259.663 221.484 262.573 222.209L267.237 203.938L238.294 210.836Z" fill="#338FFD"/>
<path fill-rule="evenodd" clip-rule="evenodd" d="M70.2638 237.933C72.2682 239.52 80.279 245.114 81.9728 245.751L91.3413 230.918C90.2952 231.179 71.5587 236.694 70.2638 237.933Z" fill="#338FFD"/>
<path fill-rule="evenodd" clip-rule="evenodd" d="M107.139 90.4759L119.86 108.167L123.642 86.9915C121.428 86.9606 117.877 87.8818 115.498 88.3792C114.296 88.6306 112.811 88.986 111.468 89.2321C110.889 89.3381 109.727 89.5119 109.414 89.5846L107.139 90.4759Z" fill="#338FFD"/>
<path fill-rule="evenodd" clip-rule="evenodd" d="M242.704 200.863C246.556 200.318 260.88 197.94 262.627 196.878C261.874 195.669 255.409 188.79 253.755 188.285C249.416 193.796 244.927 197.022 242.704 200.863Z" fill="#338FFD"/>
<path fill-rule="evenodd" clip-rule="evenodd" d="M237.633 230.703L248.648 224.802C247.622 223.802 234.985 216.009 233.467 215.447L237.633 230.703Z" fill="#338FFD"/>
<path fill-rule="evenodd" clip-rule="evenodd" d="M76.1272 229.939C78.6508 229.665 89.4835 227.309 90.9801 226.504L78.1787 221.965L76.1272 229.939Z" fill="#338FFD"/>
<path fill-rule="evenodd" clip-rule="evenodd" d="M93.9743 121.757C96.3354 121.088 104.742 117.861 106.252 116.515L93.7615 111.407L93.9743 121.757Z" fill="#338FFD"/>
</svg>
