<svg viewBox="0 0 66 54" fill="none" xmlns="http://www.w3.org/2000/svg">
<path fill-rule="evenodd" clip-rule="evenodd" d="M59.1933 19.0605C58.1703 20.1517 56.7954 19.6932 56.4314 19.0172C51.4669 9.79266 43.9288 7.13696 36.6816 7.20766C31.022 7.26366 25.156 10.1855 20.0165 13.7835L21.8145 16.3405C23.0554 17.8694 22.079 18.2194 19.5856 18.8857L3.88163 23.2824C1.30733 23.9918 1.72943 23.1272 3.04203 20.9635L11.5816 6.37886C12.9155 4.14066 13.4699 4.65546 14.6501 6.15246L16.9732 9.45576C22.6793 4.54066 29.9204 2.06726 36.6404 2.00126C44.9306 1.92036 55.4843 5.73926 59.3522 14.6932C60.4546 17.2443 60.3693 17.5707 59.1933 19.0605V19.0605Z" fill="#898989"/>
<path fill-rule="evenodd" clip-rule="evenodd" d="M6.60966 35.4771C7.63266 34.386 9.0075 34.8445 9.3715 35.5204C14.336 44.745 21.8742 47.4006 29.1214 47.33C34.781 47.2739 40.6469 44.3521 45.7864 40.7542L43.9884 38.1972C42.7475 36.6682 43.7239 36.3182 46.2173 35.6519L61.9213 31.2553C64.4956 30.5459 64.0735 31.4104 62.7609 33.5741L54.2214 48.1587C52.8875 50.3969 52.3332 49.8821 51.153 48.3852L48.8298 45.0818C43.1237 49.9969 35.8825 52.4703 29.1625 52.5364C20.8722 52.6173 10.3186 48.7983 6.45073 39.8445C5.34833 37.2933 5.43366 36.967 6.60966 35.4771V35.4771Z" fill="#338FFD"/>
</svg>
